<svg width="22" height="21" viewBox="0 0 22 21" fill="none" xmlns="http://www.w3.org/2000/svg">
<path fill-rule="evenodd" clip-rule="evenodd" d="M10.4737 14.7219L8.9819 15.5093C8.15633 15.945 7.18988 15.2436 7.34808 14.3237L7.63388 12.6617C7.65011 12.5673 7.65406 12.4725 7.64642 12.3792L7.67256 12.2271L7.60728 12.1634C7.55436 11.9772 7.45354 11.8051 7.31096 11.6659L6.1002 10.4841C5.53515 9.93262 5.71339 9.03538 6.34129 8.69223L7.35764 8.54645L8.94299 8.31905L9.22597 7.7446C9.23211 7.73316 9.23806 7.72159 9.24382 7.7099L9.98874 6.19808C10.3915 5.38064 11.5395 5.36133 11.9771 6.14124L12.3417 6.87864L13.054 8.31905L14.637 8.5465L15.6615 8.69371C16.2896 9.03792 16.4665 9.93688 15.899 10.4874L14.6889 11.6613C14.5476 11.7983 14.447 11.9677 14.393 12.1511L14.321 12.2209L14.35 12.3896C14.3437 12.4787 14.348 12.5692 14.3634 12.6592L14.6493 14.3238C14.8073 15.2437 13.8409 15.9448 13.0155 15.5091L11.5239 14.7219C11.1953 14.5485 10.8023 14.5485 10.4737 14.7219ZM7.57062 10.0313L8.92392 11.3525L9.28442 11.7045L9.20071 12.1914L8.88 14.0569L10.5539 13.1732L10.9971 12.9393L11.4406 13.1734L13.1143 14.0569L12.794 12.1916L12.7088 11.6952L13.0633 11.3512L14.4237 10.0313L12.5475 9.76168L12.0593 9.69154L11.8348 9.23752L10.9971 7.54351L10.162 9.23877L9.93901 9.69154L9.44278 9.76272L7.57062 10.0313Z" fill="#3A3AFF"/>
</svg>
