<svg width="21" height="21" viewBox="0 0 21 21" fill="none" xmlns="http://www.w3.org/2000/svg">
<path fill-rule="evenodd" clip-rule="evenodd" d="M8.88018 12.037H9.59357L10.0438 12.5904L12.2702 15.3271H12.435V15.0171V13.5171H13.935H15.215V10.0374C15.215 9.55771 14.9856 9.10697 14.5978 8.82467L13.8415 8.2741C13.585 8.08739 13.2759 7.9868 12.9587 7.9868H9.02181H8.53516L8.53516 12.037L8.88018 12.037ZM8.88018 13.537L11.5568 16.8271H12.435H13.935V16.5171V15.3271V15.0171H15.215C16.0434 15.0171 16.715 14.3455 16.715 13.5171V10.0374C16.715 9.07804 16.2562 8.17657 15.4806 7.61197L14.7243 7.0614C14.2113 6.68797 13.5932 6.4868 12.9587 6.4868H9.02181H8.53516C8.01333 6.4868 7.55375 6.75327 7.28504 7.15755L7.26967 7.18113C7.12119 7.41386 7.03516 7.69028 7.03516 7.9868V12.037C7.03516 12.2991 7.10235 12.5454 7.22045 12.7598C7.23989 12.7951 7.26071 12.8295 7.28283 12.863C7.55123 13.2691 8.01191 13.537 8.53516 13.537H8.88018ZM5.78516 7.18113C5.78516 7.0853 5.76718 6.99367 5.73442 6.90942C5.62559 6.62952 5.35354 6.43113 5.03516 6.43113C4.62094 6.43113 4.28516 6.76692 4.28516 7.18113V12.7598C4.28516 13.174 4.62094 13.5098 5.03516 13.5098C5.33852 13.5098 5.59981 13.3297 5.71794 13.0706C5.76111 12.9759 5.78516 12.8707 5.78516 12.7598V12.7592L5.78516 12.037V7.9868V7.18113Z" fill="#3A3AFF"/>
</svg>
