<svg width="22" height="21" viewBox="0 0 22 21" fill="none" xmlns="http://www.w3.org/2000/svg">
<path fill-rule="evenodd" clip-rule="evenodd" d="M9.38018 11.2213H10.0936L10.5438 10.6679L12.7702 7.93115H12.935V8.24123V9.74123H14.435H15.715V13.2209C15.715 13.7006 15.4856 14.1513 15.0978 14.4336L14.3415 14.9842C14.085 15.1709 13.7759 15.2715 13.4587 15.2715H9.52181H9.03516L9.03516 11.2213L9.38018 11.2213ZM9.38018 9.72125L12.0568 6.43115H12.935H14.435V6.74123V7.93115V8.24123H15.715C16.5434 8.24123 17.215 8.9128 17.215 9.74123V13.2209C17.215 14.1803 16.7562 15.0817 15.9806 15.6463L15.2243 16.1969C14.7113 16.5703 14.0932 16.7715 13.4587 16.7715H9.52181H9.03516C8.51333 16.7715 8.05375 16.505 7.78504 16.1008L7.76967 16.0772C7.62119 15.8444 7.53516 15.568 7.53516 15.2715V11.2213C7.53516 10.9592 7.60235 10.7129 7.72045 10.4985C7.73989 10.4632 7.76071 10.4288 7.78283 10.3953C8.05123 9.98917 8.51191 9.72125 9.03516 9.72125H9.38018ZM6.28516 16.0772C6.28516 16.173 6.26718 16.2646 6.23442 16.3489C6.12559 16.6288 5.85354 16.8272 5.53516 16.8272C5.12094 16.8272 4.78516 16.4914 4.78516 16.0772V10.4985C4.78516 10.0843 5.12094 9.7485 5.53516 9.7485C5.83852 9.7485 6.09981 9.9286 6.21794 10.1877C6.26111 10.2824 6.28516 10.3876 6.28516 10.4985V10.4991L6.28516 11.2213V15.2715V16.0772Z" fill="#3A3AFF"/>
</svg>
