<svg width="21" height="21" viewBox="0 0 21 21" fill="none" xmlns="http://www.w3.org/2000/svg">
<path fill-rule="evenodd" clip-rule="evenodd" d="M9.625 8.79541C9.90114 8.79541 10.125 8.57155 10.125 8.29541C10.125 8.01927 9.90114 7.79541 9.625 7.79541C9.34886 7.79541 9.125 8.01927 9.125 8.29541C9.125 8.57155 9.34886 8.79541 9.625 8.79541ZM9.625 10.2954C10.7296 10.2954 11.625 9.39998 11.625 8.29541C11.625 7.19084 10.7296 6.29541 9.625 6.29541C8.52043 6.29541 7.625 7.19084 7.625 8.29541C7.625 9.39998 8.52043 10.2954 9.625 10.2954ZM7.625 12.5112C7.34886 12.5112 7.125 12.7351 7.125 13.0112C7.125 13.2874 7.34886 13.5112 7.625 13.5112H11.625C11.9011 13.5112 12.125 13.2874 12.125 13.0112C12.125 12.7351 11.9011 12.5112 11.625 12.5112H7.625ZM11.625 11.0112H7.625C6.52043 11.0112 5.625 11.9067 5.625 13.0112C5.625 14.1158 6.52043 15.0112 7.625 15.0112H11.625C12.7296 15.0112 13.625 14.1158 13.625 13.0112C13.625 11.9067 12.7296 11.0112 11.625 11.0112ZM12.375 8.79541C12.6511 8.79541 12.875 8.57155 12.875 8.29541C12.875 8.01927 12.6511 7.79541 12.375 7.79541V6.29541C13.4796 6.29541 14.375 7.19084 14.375 8.29541C14.375 9.39998 13.4796 10.2954 12.375 10.2954V8.79541ZM14.375 15.0112V13.5112C14.6511 13.5112 14.875 13.2874 14.875 13.0112C14.875 12.7351 14.6511 12.5112 14.375 12.5112V11.0112C15.4796 11.0112 16.375 11.9067 16.375 13.0112C16.375 14.1158 15.4796 15.0112 14.375 15.0112Z" fill="#212322"/>
</svg>
