<svg width="641" height="320" viewBox="0 0 641 320" fill="none" xmlns="http://www.w3.org/2000/svg">
<rect width="640" height="320" transform="translate(0.404175)" fill="#F2F4F5"/>
<path d="M138.36 215.689L150.042 187.361L178.333 199.131L166.563 170.84L194.891 159.158L166.563 147.476L178.333 119.184L150.042 130.955L138.36 102.627L126.678 130.955L98.3865 119.184L110.157 147.476L81.8289 159.158L110.157 170.84L98.3865 199.131L126.678 187.361L138.36 215.689Z" fill="#101011"/>
<path fill-rule="evenodd" clip-rule="evenodd" d="M526.52 119.106H542.495V198.806H527.308V191.381H527.083C525.208 194.531 522.733 196.819 519.658 198.244C516.658 199.594 513.245 200.269 509.42 200.269C505.07 200.269 501.245 199.444 497.945 197.794C494.645 196.069 491.908 193.781 489.733 190.931C487.633 188.006 486.02 184.669 484.895 180.919C483.845 177.169 483.32 173.269 483.32 169.219C483.32 165.319 483.845 161.569 484.895 157.969C486.02 154.294 487.633 151.069 489.733 148.294C491.908 145.519 494.608 143.306 497.833 141.656C501.058 139.931 504.808 139.069 509.083 139.069C512.533 139.069 515.795 139.819 518.87 141.319C522.02 142.744 524.495 144.881 526.295 147.731H526.52V119.106ZM331.505 141.268H346.58V148.519H346.805C348.905 145.519 351.417 143.194 354.342 141.544C357.342 139.894 360.755 139.069 364.58 139.069C368.255 139.069 371.592 139.781 374.592 141.206C377.667 142.631 379.992 145.144 381.567 148.744C383.292 146.194 385.617 143.944 388.542 141.994C391.542 140.044 395.067 139.069 399.117 139.069C402.192 139.069 405.042 139.444 407.667 140.194C410.292 140.944 412.542 142.144 414.417 143.794C416.292 145.444 417.755 147.619 418.805 150.319C419.855 152.944 420.38 156.131 420.38 159.881V198.806H404.405V165.844C404.405 163.894 404.33 162.056 404.18 160.331C404.03 158.606 403.617 157.106 402.942 155.831C402.267 154.556 401.255 153.544 399.905 152.794C398.63 152.044 396.867 151.669 394.617 151.669C392.367 151.669 390.53 152.119 389.105 153.019C387.755 153.844 386.667 154.969 385.842 156.394C385.092 157.744 384.567 159.319 384.267 161.119C384.042 162.844 383.93 164.606 383.93 166.406V198.806H367.955V166.181C367.955 164.456 367.917 162.769 367.842 161.119C367.767 159.394 367.43 157.819 366.83 156.394C366.305 154.969 365.367 153.844 364.017 153.019C362.742 152.119 360.83 151.669 358.28 151.669C357.53 151.669 356.517 151.856 355.242 152.231C354.042 152.531 352.842 153.169 351.642 154.144C350.517 155.044 349.542 156.394 348.717 158.194C347.892 159.919 347.48 162.206 347.48 165.056V198.806H331.505V141.268ZM308.355 141.268H324.33V198.806H309.143V190.706H308.805C306.78 194.081 304.155 196.519 300.93 198.019C297.705 199.519 294.405 200.269 291.03 200.269C286.755 200.269 283.23 199.706 280.455 198.581C277.755 197.456 275.618 195.881 274.043 193.856C272.468 191.756 271.343 189.244 270.668 186.319C270.068 183.319 269.768 180.019 269.768 176.419V141.268H285.743V173.494C285.743 178.294 286.493 181.894 287.993 184.294C289.493 186.619 292.155 187.781 295.98 187.781C300.33 187.781 303.48 186.506 305.43 183.956C307.38 181.331 308.355 177.056 308.355 171.131V141.268ZM246.119 119.106H262.657V198.806H244.994L211.582 145.031H211.357V198.806H194.819V119.106H212.758L245.894 172.369H246.119V119.106ZM426.258 158.531C426.483 154.781 427.421 151.669 429.071 149.194C430.721 146.719 432.821 144.731 435.371 143.231C437.921 141.731 440.771 140.681 443.921 140.081C447.146 139.406 450.371 139.069 453.596 139.069C456.521 139.069 459.483 139.294 462.483 139.744C465.483 140.119 468.221 140.906 470.696 142.106C473.171 143.306 475.196 144.994 476.771 147.169C478.346 149.269 479.133 152.081 479.133 155.606V185.869C479.133 188.494 479.283 191.006 479.583 193.406C479.883 195.806 480.408 197.606 481.158 198.806H464.958C464.658 197.906 464.396 197.006 464.171 196.106C464.021 195.131 463.908 194.156 463.833 193.181C461.283 195.806 458.283 197.644 454.833 198.694C451.383 199.744 447.858 200.269 444.258 200.269C441.483 200.269 438.896 199.931 436.496 199.256C434.096 198.581 431.996 197.531 430.196 196.106C428.396 194.681 426.971 192.881 425.921 190.706C424.946 188.531 424.458 185.944 424.458 182.944C424.458 179.644 425.021 176.944 426.146 174.844C427.346 172.669 428.846 170.944 430.646 169.669C432.521 168.394 434.621 167.456 436.946 166.856C439.346 166.181 441.746 165.656 444.146 165.281C446.546 164.906 448.908 164.606 451.233 164.381C453.558 164.156 455.621 163.819 457.421 163.369C459.221 162.919 460.646 162.281 461.696 161.456C462.746 160.556 463.233 159.281 463.158 157.631C463.158 155.906 462.858 154.556 462.258 153.581C461.733 152.531 460.983 151.744 460.008 151.219C459.108 150.619 458.021 150.244 456.746 150.094C455.546 149.869 454.233 149.756 452.808 149.756C449.658 149.756 447.183 150.431 445.383 151.781C443.583 153.131 442.533 155.381 442.233 158.531H426.258ZM463.158 170.344C462.483 170.944 461.621 171.431 460.571 171.806C459.596 172.106 458.508 172.369 457.308 172.594C456.183 172.819 454.983 173.006 453.708 173.156C452.433 173.306 451.158 173.494 449.883 173.719C448.683 173.944 447.483 174.244 446.283 174.619C445.158 174.994 444.146 175.519 443.246 176.194C442.421 176.794 441.746 177.581 441.221 178.556C440.696 179.531 440.433 180.769 440.433 182.269C440.433 183.694 440.696 184.894 441.221 185.869C441.746 186.844 442.458 187.631 443.358 188.231C444.258 188.756 445.308 189.131 446.508 189.356C447.708 189.581 448.946 189.694 450.221 189.694C453.371 189.694 455.808 189.169 457.533 188.119C459.258 187.069 460.533 185.831 461.358 184.406C462.183 182.906 462.671 181.406 462.821 179.906C463.046 178.406 463.158 177.206 463.158 176.306V170.344ZM527.083 169.556C527.083 167.156 526.858 164.869 526.408 162.694C525.958 160.444 525.17 158.494 524.045 156.844C522.995 155.119 521.608 153.731 519.883 152.681C518.158 151.631 515.983 151.106 513.358 151.106C510.733 151.106 508.52 151.631 506.72 152.681C504.92 153.731 503.458 155.119 502.333 156.844C501.283 158.569 500.495 160.556 499.97 162.806C499.52 164.981 499.295 167.269 499.295 169.669C499.295 171.919 499.558 174.169 500.083 176.419C500.608 178.669 501.433 180.694 502.558 182.494C503.758 184.219 505.22 185.644 506.945 186.769C508.745 187.819 510.883 188.344 513.358 188.344C515.983 188.344 518.158 187.819 519.883 186.769C521.683 185.719 523.108 184.331 524.158 182.606C525.208 180.806 525.958 178.781 526.408 176.531C526.858 174.281 527.083 171.956 527.083 169.556Z" fill="#101011"/>
</svg>
