<svg width="22" height="21" viewBox="0 0 22 21" fill="none" xmlns="http://www.w3.org/2000/svg">
<mask id="path-1-inside-1_876_374282" fill="white">
<path fill-rule="evenodd" clip-rule="evenodd" d="M8.20508 6.41895C7.37665 6.41895 6.70508 7.09052 6.70508 7.91895V13.5088C6.70508 14.3372 7.37665 15.0088 8.20508 15.0088H10.8166V17.1717H12.2488L15.2865 14.134L15.2949 14.1306V7.91895C15.2949 7.09052 14.6233 6.41895 13.7949 6.41895H8.20508Z"/>
</mask>
<path d="M10.8166 15.0088H12.3166V13.5088H10.8166V15.0088ZM10.8166 17.1717H9.31663V18.6717H10.8166V17.1717ZM12.2488 17.1717V18.6717H12.8701L13.3095 18.2324L12.2488 17.1717ZM15.2865 14.134L14.7188 12.7456L14.4393 12.8599L14.2259 13.0734L15.2865 14.134ZM15.2949 14.1306L15.8627 15.519L16.7949 15.1378V14.1306H15.2949ZM8.20508 7.91895V7.91895V4.91895C6.54822 4.91895 5.20508 6.26209 5.20508 7.91895H8.20508ZM8.20508 13.5088V7.91895H5.20508V13.5088H8.20508ZM8.20508 13.5088H5.20508C5.20508 15.1656 6.54822 16.5088 8.20508 16.5088V13.5088ZM10.8166 13.5088H8.20508V16.5088H10.8166V13.5088ZM9.31663 15.0088V17.1717H12.3166V15.0088H9.31663ZM10.8166 18.6717H12.2488V15.6717H10.8166V18.6717ZM13.3095 18.2324L16.3472 15.1947L14.2259 13.0734L11.1881 16.1111L13.3095 18.2324ZM14.7272 12.7422L14.7188 12.7456L15.8543 15.5224L15.8627 15.519L14.7272 12.7422ZM13.7949 7.91895V14.1306H16.7949V7.91895H13.7949ZM13.7949 7.91895H13.7949H16.7949C16.7949 6.26209 15.4518 4.91895 13.7949 4.91895V7.91895ZM8.20508 7.91895H13.7949V4.91895H8.20508V7.91895Z" fill="#3A3AFF" mask="url(#path-1-inside-1_876_374282)"/>
</svg>
