<svg width="22" height="21" viewBox="0 0 22 21" fill="none" xmlns="http://www.w3.org/2000/svg">
<path fill-rule="evenodd" clip-rule="evenodd" d="M9.38018 9.4859H10.0936L10.5438 8.93251L12.7702 6.1958H12.935V6.50588V8.00588H14.435H15.715V11.4856C15.715 11.9652 15.4856 12.416 15.0978 12.6983L14.3415 13.2488C14.085 13.4356 13.7759 13.5361 13.4587 13.5361H9.52181H9.03516L9.03516 9.4859L9.38018 9.4859ZM9.38018 7.9859L12.0568 4.6958H12.935H14.435V5.00588V6.1958V6.50588H15.715C16.5434 6.50588 17.215 7.17745 17.215 8.00588V11.4856C17.215 12.4449 16.7562 13.3464 15.9806 13.911L15.2243 14.4616C14.7113 14.835 14.0932 15.0361 13.4587 15.0361H9.52181H9.03516C8.51333 15.0361 8.05375 14.7697 7.78504 14.3654L7.76967 14.3418C7.62119 14.1091 7.53516 13.8327 7.53516 13.5361V9.4859C7.53516 9.22386 7.60235 8.97751 7.72045 8.76314C7.73989 8.72786 7.76071 8.69344 7.78283 8.65996C8.05123 8.25382 8.51191 7.9859 9.03516 7.9859H9.38018ZM6.28516 14.3418C6.28516 14.4376 6.26718 14.5293 6.23442 14.6135C6.12559 14.8934 5.85354 15.0918 5.53516 15.0918C5.12094 15.0918 4.78516 14.756 4.78516 14.3418V8.76314C4.78516 8.34893 5.12094 8.01315 5.53516 8.01315C5.83852 8.01315 6.09981 8.19325 6.21794 8.45237C6.26111 8.54706 6.28516 8.65229 6.28516 8.76314V8.76375L6.28516 9.4859V13.5361V14.3418Z" fill="#3A3AFF"/>
</svg>
